<svg xmlns="http://www.w3.org/2000/svg" viewBox="0 0 7410 3900" width="50" height="26"><rect width="7410" height="3900" fill="#fff"/><rect y="0" width="7410" height="300" fill="#b22234"/><rect y="600" width="7410" height="300" fill="#b22234"/><rect y="1200" width="7410" height="300" fill="#b22234"/><rect y="1800" width="7410" height="300" fill="#b22234"/><rect y="2400" width="7410" height="300" fill="#b22234"/><rect y="3000" width="7410" height="300" fill="#b22234"/><rect y="3600" width="7410" height="300" fill="#b22234"/><rect width="2964" height="2100" fill="#3c3b6e"/><g fill="#fff"><polygon points="247,18 290,151 430,151 317,233 360,365 247,283 134,365 177,233 64,151 204,151"/><polygon points="741,18 784,151 924,151 811,233 854,365 741,283 628,365 671,233 558,151 698,151"/><polygon points="1235,18 1278,151 1418,151 1305,233 1348,365 1235,283 1122,365 1165,233 1052,151 1192,151"/><polygon points="1729,18 1772,151 1912,151 1799,233 1842,365 1729,283 1616,365 1659,233 1546,151 1686,151"/><polygon points="2223,18 2266,151 2406,151 2293,233 2336,365 2223,283 2110,365 2153,233 2040,151 2180,151"/><polygon points="2717,18 2760,151 2900,151 2787,233 2830,365 2717,283 2604,365 2647,233 2534,151 2674,151"/><polygon points="494,228 537,361 677,361 564,443 607,575 494,493 381,575 424,443 311,361 451,361"/><polygon points="988,228 1031,361 1171,361 1058,443 1101,575 988,493 875,575 918,443 805,361 945,361"/><polygon points="1482,228 1525,361 1665,361 1552,443 1595,575 1482,493 1369,575 1412,443 1299,361 1439,361"/><polygon points="1976,228 2019,361 2159,361 2046,443 2089,575 1976,493 1863,575 1906,443 1793,361 1933,361"/><polygon points="2470,228 2513,361 2653,361 2540,443 2583,575 2470,493 2357,575 2400,443 2287,361 2427,361"/><polygon points="247,438 290,571 430,571 317,653 360,785 247,703 134,785 177,653 64,571 204,571"/><polygon points="741,438 784,571 924,571 811,653 854,785 741,703 628,785 671,653 558,571 698,571"/><polygon points="1235,438 1278,571 1418,571 1305,653 1348,785 1235,703 1122,785 1165,653 1052,571 1192,571"/><polygon points="1729,438 1772,571 1912,571 1799,653 1842,785 1729,703 1616,785 1659,653 1546,571 1686,571"/><polygon points="2223,438 2266,571 2406,571 2293,653 2336,785 2223,703 2110,785 2153,653 2040,571 2180,571"/><polygon points="2717,438 2760,571 2900,571 2787,653 2830,785 2717,703 2604,785 2647,653 2534,571 2674,571"/><polygon points="494,648 537,781 677,781 564,863 607,995 494,913 381,995 424,863 311,781 451,781"/><polygon points="988,648 1031,781 1171,781 1058,863 1101,995 988,913 875,995 918,863 805,781 945,781"/><polygon points="1482,648 1525,781 1665,781 1552,863 1595,995 1482,913 1369,995 1412,863 1299,781 1439,781"/><polygon points="1976,648 2019,781 2159,781 2046,863 2089,995 1976,913 1863,995 1906,863 1793,781 1933,781"/><polygon points="2470,648 2513,781 2653,781 2540,863 2583,995 2470,913 2357,995 2400,863 2287,781 2427,781"/><polygon points="247,858 290,991 430,991 317,1073 360,1205 247,1123 134,1205 177,1073 64,991 204,991"/><polygon points="741,858 784,991 924,991 811,1073 854,1205 741,1123 628,1205 671,1073 558,991 698,991"/><polygon points="1235,858 1278,991 1418,991 1305,1073 1348,1205 1235,1123 1122,1205 1165,1073 1052,991 1192,991"/><polygon points="1729,858 1772,991 1912,991 1799,1073 1842,1205 1729,1123 1616,1205 1659,1073 1546,991 1686,991"/><polygon points="2223,858 2266,991 2406,991 2293,1073 2336,1205 2223,1123 2110,1205 2153,1073 2040,991 2180,991"/><polygon points="2717,858 2760,991 2900,991 2787,1073 2830,1205 2717,1123 2604,1205 2647,1073 2534,991 2674,991"/><polygon points="494,1068 537,1201 677,1201 564,1283 607,1415 494,1333 381,1415 424,1283 311,1201 451,1201"/><polygon points="988,1068 1031,1201 1171,1201 1058,1283 1101,1415 988,1333 875,1415 918,1283 805,1201 945,1201"/><polygon points="1482,1068 1525,1201 1665,1201 1552,1283 1595,1415 1482,1333 1369,1415 1412,1283 1299,1201 1439,1201"/><polygon points="1976,1068 2019,1201 2159,1201 2046,1283 2089,1415 1976,1333 1863,1415 1906,1283 1793,1201 1933,1201"/><polygon points="2470,1068 2513,1201 2653,1201 2540,1283 2583,1415 2470,1333 2357,1415 2400,1283 2287,1201 2427,1201"/><polygon points="247,1278 290,1411 430,1411 317,1493 360,1625 247,1543 134,1625 177,1493 64,1411 204,1411"/><polygon points="741,1278 784,1411 924,1411 811,1493 854,1625 741,1543 628,1625 671,1493 558,1411 698,1411"/><polygon points="1235,1278 1278,1411 1418,1411 1305,1493 1348,1625 1235,1543 1122,1625 1165,1493 1052,1411 1192,1411"/><polygon points="1729,1278 1772,1411 1912,1411 1799,1493 1842,1625 1729,1543 1616,1625 1659,1493 1546,1411 1686,1411"/><polygon points="2223,1278 2266,1411 2406,1411 2293,1493 2336,1625 2223,1543 2110,1625 2153,1493 2040,1411 2180,1411"/><polygon points="2717,1278 2760,1411 2900,1411 2787,1493 2830,1625 2717,1543 2604,1625 2647,1493 2534,1411 2674,1411"/><polygon points="494,1488 537,1621 677,1621 564,1703 607,1835 494,1753 381,1835 424,1703 311,1621 451,1621"/><polygon points="988,1488 1031,1621 1171,1621 1058,1703 1101,1835 988,1753 875,1835 918,1703 805,1621 945,1621"/><polygon points="1482,1488 1525,1621 1665,1621 1552,1703 1595,1835 1482,1753 1369,1835 1412,1703 1299,1621 1439,1621"/><polygon points="1976,1488 2019,1621 2159,1621 2046,1703 2089,1835 1976,1753 1863,1835 1906,1703 1793,1621 1933,1621"/><polygon points="2470,1488 2513,1621 2653,1621 2540,1703 2583,1835 2470,1753 2357,1835 2400,1703 2287,1621 2427,1621"/><polygon points="247,1698 290,1831 430,1831 317,1913 360,2045 247,1963 134,2045 177,1913 64,1831 204,1831"/><polygon points="741,1698 784,1831 924,1831 811,1913 854,2045 741,1963 628,2045 671,1913 558,1831 698,1831"/><polygon points="1235,1698 1278,1831 1418,1831 1305,1913 1348,2045 1235,1963 1122,2045 1165,1913 1052,1831 1192,1831"/><polygon points="1729,1698 1772,1831 1912,1831 1799,1913 1842,2045 1729,1963 1616,2045 1659,1913 1546,1831 1686,1831"/><polygon points="2223,1698 2266,1831 2406,1831 2293,1913 2336,2045 2223,1963 2110,2045 2153,1913 2040,1831 2180,1831"/><polygon points="2717,1698 2760,1831 2900,1831 2787,1913 2830,2045 2717,1963 2604,2045 2647,1913 2534,1831 2674,1831"/></g></svg>
